
        <svg xmlns="http://www.w3.org/2000/svg" xmlns:xlink="http://www.w3.org/1999/xlink" version="1.1" width="3214.285714285714" 
        height="2059.5996799696045" viewBox="0 0 3214.285714285714 2059.5996799696045">
			
			<g transform="scale(10.714285714285714) translate(10, 10)">
				<defs id="SvgjsDefs1013"></defs><g id="SvgjsG1014" featureKey="symbolFeature-0" transform="matrix(0.8997164003092246,0,0,0.8997164003092246,95.75056720352666,-3.5862696265469003)" fill="#7045af"><path xmlns="http://www.w3.org/2000/svg" d="M74.638,20.539h-2.44h-5.336h-3.064v-2.852C63.745,10.123,57.576,3.986,50,3.986c-7.577,0-13.745,6.138-13.798,13.702v2.852  h-3.064h-7.776l-3.967,51.867c0,4.687,3.8,8.487,8.487,8.487h1.212V49.436c0-5.14,4.182-9.322,9.322-9.322h19.167  c5.14,0,9.322,4.182,9.323,9.322v4.799v24.741v1.917h1.212c4.687,0,8.487-3.8,8.487-8.487L74.638,20.539z M38.264,30.548  c-1.139,0-2.063-0.924-2.063-2.063c0-1.139,0.924-2.063,2.063-2.063c1.139,0,2.063,0.924,2.063,2.063  C40.327,29.625,39.404,30.548,38.264,30.548z M40.327,20.539v-2.852h0.005c0-5.339,4.329-9.668,9.668-9.668  c5.34,0,9.668,4.328,9.668,9.668h0.005v2.852H50H40.327z M61.642,30.548c-1.139,0-2.063-0.924-2.063-2.063  c0-1.139,0.924-2.063,2.063-2.063c1.139,0,2.063,0.924,2.063,2.063C63.705,29.625,62.782,30.548,61.642,30.548z M65.198,78.976  V54.235v-4.799c0-3.088-2.527-5.615-5.615-5.615H40.416c-3.088,0-5.615,2.527-5.615,5.615V90.4c0,3.088,2.527,5.615,5.615,5.615  h19.167c3.088,0,5.615-2.527,5.615-5.615V78.976z M52.412,93.654h-5.406c-0.802,0-1.452-0.65-1.452-1.452  c0-0.802,0.65-1.452,1.452-1.452h5.406c0.802,0,1.452,0.65,1.452,1.452C53.864,93.003,53.214,93.654,52.412,93.654z M62.219,53.156  v1.079v24.699v2.864v5.133c0,0.793-0.649,1.441-1.442,1.441H39.222c-0.793,0-1.441-0.649-1.441-1.441V52.905  c0-0.793,0.649-1.441,1.441-1.441h21.555c0.793,0,1.442,0.649,1.442,1.441V53.156z M53.822,75.166  c-0.581,0.706-1.336,1.18-2.219,1.422c-0.385,0.105-0.557,0.307-0.539,0.707c0.017,0.392-0.002,0.786-0.003,1.179  c-0.001,0.351-0.179,0.538-0.525,0.547c-0.423,0.011-0.846,0.01-1.269,0.003c-0.371-0.007-0.545-0.217-0.55-0.579  c-0.003-0.287-0.005-0.574-0.008-0.862c-0.006-0.633-0.026-0.66-0.636-0.756c-0.78-0.124-1.545-0.301-2.259-0.647  c-0.561-0.272-0.618-0.412-0.457-1c0.12-0.437,0.24-0.875,0.376-1.308c0.158-0.503,0.293-0.566,0.756-0.325  c0.789,0.411,1.628,0.641,2.506,0.751c0.567,0.071,1.119,0.013,1.644-0.216c0.978-0.427,1.131-1.562,0.305-2.242  c-0.282-0.232-0.601-0.402-0.935-0.549c-0.857-0.377-1.753-0.665-2.563-1.15c-1.314-0.787-2.148-1.867-2.05-3.467  c0.11-1.809,1.133-2.937,2.791-3.54c0.684-0.249,0.687-0.239,0.691-0.954c0.001-0.242-0.003-0.484,0.003-0.726  c0.014-0.539,0.106-0.631,0.641-0.647c0.166-0.005,0.333-0.001,0.499-0.001c1.143-0.002,1.143-0.002,1.148,1.143  c0.003,0.808,0.003,0.812,0.809,0.938c0.617,0.096,1.206,0.278,1.776,0.53c0.315,0.139,0.433,0.358,0.337,0.69  c-0.144,0.493-0.277,0.99-0.435,1.479c-0.149,0.463-0.297,0.53-0.741,0.315c-0.892-0.432-1.829-0.612-2.815-0.558  c-0.259,0.014-0.511,0.049-0.751,0.153c-0.852,0.373-0.99,1.313-0.265,1.893c0.367,0.294,0.786,0.506,1.222,0.687  c0.754,0.312,1.514,0.612,2.23,1.008C54.814,70.348,55.429,73.214,53.822,75.166z"></path></g><g id="SvgjsG1015" featureKey="nameFeature-0" transform="matrix(1.0076872749805685,0,0,1.0076872749805685,-2.015374549961137,91.71390175141326)" fill="#111111"><path d="M22.4 30 l0 10 l-6 0 l0 -10 c0 -2.76 -1.28 -4.64 -4.2 -4.64 c-2.88 0 -4.2 1.92 -4.2 4.64 l0 10 l-6 0 l0 -10 c0 -6.16 4.24 -10.2 10.2 -10.2 c6.2 0 10.2 4.24 10.2 10.2 z M36.412 34.64 c2.92 0 4.6 -1.72 4.6 -4.64 s-1.68 -4.64 -4.6 -4.64 s-4.6 1.72 -4.6 4.64 s1.68 4.64 4.6 4.64 z M36.412 40.2 c-6.16 0 -10.6 -4.08 -10.6 -10.2 c0 -6.32 4.6 -10.2 10.6 -10.2 c6.2 0 10.6 4.08 10.6 10.2 c0 6.28 -4.64 10.2 -10.6 10.2 z M70.024 20 l-8.2 20 l-6 0 l-8.2 -20 l5.96 0 c0.88 2.28 1.76 4.52 2.64 6.8 c0.84 2.28 1.72 4.52 2.6 6.8 c0.88 -2.28 1.76 -4.52 2.64 -6.8 c0.84 -2.28 1.72 -4.52 2.6 -6.8 l5.96 0 z M72.516 20 l6 0 l0 20 l-6 0 l0 -20 z M75.516 18.12 c-2.04 0 -3.48 -1.44 -3.48 -3.48 c0 -2.08 1.44 -3.44 3.48 -3.44 c2.08 0 3.44 1.36 3.44 3.44 c0 2.12 -1.32 3.48 -3.44 3.48 z M83.408 20 l6 0 l0 20 l-6 0 l0 -20 z M86.408 18.12 c-2.04 0 -3.48 -1.44 -3.48 -3.48 c0 -2.08 1.44 -3.44 3.48 -3.44 c2.08 0 3.44 1.36 3.44 3.44 c0 2.12 -1.32 3.48 -3.44 3.48 z M114.9 30 l0 10 l-6 0 l0 -10 c0 -2.76 -1.28 -4.64 -4.2 -4.64 c-2.88 0 -4.2 1.92 -4.2 4.64 l0 10 l-6 0 l0 -10 c0 -6.16 4.24 -10.2 10.2 -10.2 c6.2 0 10.2 4.24 10.2 10.2 z M133.512 30 c0 -3 -1.48 -4.64 -4.52 -4.64 c-0.84 0 -1.56 0.12 -2.16 0.36 c-1.12 0.52 -1.88 1.28 -2.24 2.48 c-0.2 0.56 -0.28 1.16 -0.28 1.8 s0.08 1.24 0.28 1.8 c0.32 1.16 1.16 2 2.24 2.44 c0.6 0.28 1.32 0.4 2.16 0.4 c3.04 0 4.52 -1.64 4.52 -4.64 z M133.512 22 l0 -10 l6 0 l0 18 c0 6.36 -4.52 10.2 -10.56 10.2 c-6.16 0 -10.64 -4 -10.64 -10.12 c0 -5.64 4.16 -10.28 9.84 -10.28 c2.12 0 3.96 0.6 5.36 2.2 z M158.48399999999998 20 l6 0 l0 10 c0 6.12 -4.24 10.2 -10.2 10.2 c-6.12 0 -10.2 -4.28 -10.2 -10.2 l0 -10 l6 0 l0 10 c0 2.68 1.36 4.64 4.2 4.64 c2.92 0 4.2 -1.92 4.2 -4.64 l0 -10 z M168.45600000000002 39.36 l0 -5.6 c2.64 0.8 5.96 0.96 8.68 0.96 c1.08 0 1.92 -0.04 2.52 -0.16 c0.56 -0.08 0.84 -0.28 0.84 -0.56 c0 -0.12 -0.04 -0.2 -0.12 -0.32 c-0.4 -0.4 -1.28 -0.6 -1.8 -0.72 s-1.2 -0.28 -2.04 -0.44 c-0.68 -0.12 -1.48 -0.28 -2.4 -0.48 c-3.12 -0.68 -5.52 -2.44 -5.52 -5.8 c0 -4.96 4.84 -6.44 8.92 -6.44 c2.56 0 5.12 0.36 7.64 0.88 l0 5.64 c-2.52 -0.76 -5.36 -0.96 -8 -0.96 c-1.04 0 -1.76 0.04 -2.2 0.16 s-0.68 0.32 -0.68 0.56 c0 0.36 0.36 0.6 1.04 0.72 c0.68 0.16 1.64 0.36 2.8 0.56 c1.04 0.2 2.04 0.4 3 0.64 c2.96 0.76 5.08 2.36 5.08 5.56 c0 5.36 -5.4 6.68 -9.72 6.68 c-2.72 0 -5.4 -0.36 -8.04 -0.88 z M221.948 29.2 l0 10.8 l-6 0 l0 -10.8 c0 -2.28 -1.08 -3.84 -3.48 -3.84 c-2.36 0 -3.52 1.6 -3.52 3.84 l0 10.8 l-6 0 l0 -10.8 c0 -2.28 -1.16 -3.84 -3.56 -3.84 c-2.36 0 -3.44 1.6 -3.44 3.84 l0 10.8 l-6 0 l0 -10.8 c0 -5.8 3.96 -9.4 9.52 -9.4 c2.84 0 5.04 1.32 6.48 3.76 c1.44 -2.44 3.64 -3.76 6.48 -3.76 c5.76 0 9.52 3.8 9.52 9.4 z M240.56 30 c-0.16 -2.92 -1.48 -4.64 -4.52 -4.64 c-0.84 0 -1.56 0.12 -2.16 0.36 c-1.84 0.84 -2.52 2.4 -2.52 4.32 c0 0.64 0.08 1.24 0.28 1.76 c0.6 2.08 2.4 2.84 4.4 2.84 c3.04 0 4.52 -1.64 4.52 -4.64 z M248.16000000000003 40 l-6 0 c-0.4 -1 -0.76 -2 -1 -3.04 c-1.36 2.24 -3.44 3.24 -6 3.24 c-5.72 0 -9.8 -4.8 -9.8 -10.28 c0 -6.32 4.72 -10.12 10.68 -10.12 c6.36 0 10.36 4.08 10.52 10.2 c0.04 0.52 0.04 1.12 0.04 1.84 c0 2.8 0.44 5.6 1.56 8.16 z M257.452 30 l0 10 l-6 0 l0 -9.96 c0 -6.64 4.88 -10.24 11.04 -10.24 c0.2 0 0.48 0 0.76 0.04 s0.6 0.12 0.88 0.16 l0 5.8 c-0.2 -0.04 -0.44 -0.08 -0.72 -0.12 s-0.52 -0.08 -0.72 -0.08 c-1 0 -1.8 0.12 -2.48 0.32 c-1.12 0.4 -2.12 1.16 -2.48 2.36 c-0.2 0.52 -0.28 1.12 -0.28 1.72 z M278.704 20.68 l0 5.56 l-5.6 0 l0 3.76 c0 3.08 2.04 4.64 5 4.64 c0.36 0 0.68 -0.04 0.96 -0.08 s0.52 -0.08 0.8 -0.12 l0 5.56 c-0.36 0.04 -0.64 0.12 -0.84 0.16 c-0.24 0.04 -0.64 0.04 -1.16 0.04 c-6.04 0 -10.76 -4.12 -10.76 -10.2 l0 -14.8 l6 0 l0 5.48 l5.6 0 z"></path></g><g id="SvgjsG1016" featureKey="sloganFeature-0" transform="matrix(1.3118840511171068,0,0,1.3118840511171068,59.99999972631966,145.62429400637552)" fill="#7045af"><path d="M8.14 20.28 l-1.38 -1.2 c-0.85334 0.73334 -1.8467 1.1 -2.98 1.1 c-0.56 0 -1.07 -0.08334 -1.53 -0.25 s-0.85666 -0.41666 -1.19 -0.75 s-0.59334 -0.75 -0.78 -1.25 s-0.28 -1.0767 -0.28 -1.73 l0 -7.4 c0 -1.3333 0.34666 -2.3234 1.04 -2.97 s1.6667 -0.97 2.92 -0.97 c0.54666 0 1.05 0.08334 1.51 0.25 s0.86 0.41332 1.2 0.73998 s0.60334 0.73666 0.79 1.23 s0.28 1.06 0.28 1.7 l0 7.42 c0 0.74666 -0.14666 1.46 -0.44 2.14 l1.44 1.2 z M6.68 8.58 c0 -0.33334 -0.04332 -0.67004 -0.12998 -1.01 s-0.23332 -0.65 -0.43998 -0.93 s-0.49 -0.50666 -0.85 -0.68 s-0.80666 -0.26 -1.34 -0.26 c-0.58666 0 -1.0667 0.07666 -1.44 0.23 s-0.66334 0.36668 -0.87 0.64002 s-0.35 0.6 -0.43 0.98 s-0.12 0.79666 -0.12 1.25 l0 7.48 c0 0.34666 0.05334 0.69332 0.16 1.04 s0.27332 0.66666 0.49998 0.96 s0.51332 0.53 0.85998 0.71 s0.76666 0.27 1.26 0.27 c0.4 0 0.77334 -0.06334 1.12 -0.19 s0.68666 -0.33666 1.02 -0.63 l-2.12 -1.72 l0.56 -0.7 l2.06 1.64 c0.06666 -0.30666 0.11666 -0.55332 0.15 -0.73998 s0.05 -0.37332 0.05 -0.55998 l0 -7.78 z M15.2985 20.18 c-1.2267 0 -2.1768 -0.33336 -2.85 -1 s-1.01 -1.6533 -1.01 -2.96 l0 -11.22 l1.08 0 l0 11.16 c0 0.32 0.04334 0.65666 0.13 1.01 s0.23666 0.67334 0.45 0.96 s0.49668 0.52332 0.85002 0.70998 s0.79 0.28 1.31 0.28 c0.57334 0 1.0467 -0.08334 1.42 -0.25 s0.67334 -0.39666 0.9 -0.69 s0.38666 -0.64 0.48 -1.04 s0.14 -0.82666 0.14 -1.28 l0 -10.86 l1.06 0 l0 11.22 c0 1.3333 -0.32334 2.3266 -0.97 2.98 s-1.6433 0.98 -2.99 0.98 z M29.957 20 l-1.1 -4.42 l-4.88 0 l-1.1 4.42 l-1 0 l4.14 -15 l0.86 0 l4.12 15 l-1.04 0 z M26.477 5.9399999999999995 l-2.26 8.68 l4.38 0 z M34.0955 20 l0 -15 l1.08 0 l0 13.92 l5.1 0 l0 1.08 l-6.18 0 z M43.534 20 l0 -15 l1.28 0 l0 15 l-1.28 0 z M52.8325 6.1 l0 13.9 l-1.16 0 l0 -13.9 l-3.26 0 l0 -1.1 l7.68 0 l0 1.1 l-3.26 0 z M63.731 13.14 l0 6.86 l-1.08 0 l0 -6.86 l-3.62 -8.14 l1.24 0 l2.9 6.94 l2.94 -6.94 l1.24 0 z M77.468 6.140000000000001 l0 6.06 l6.02 0 l0 1.06 l-6.02 0 l0 6.74 l-1.16 0 l0 -15 l7.28 0 l0 1.14 l-6.12 0 z M86.8865 20 l0 -15 l1.28 0 l0 15 l-1.28 0 z M99.58500000000001 20 l-3.3 -6.22 l-3.06 0 l0 6.22 l-0.98 0 l0 -15 l3.4 0 c0.78666 0 1.46 0.11666 2.02 0.35 s1.02 0.55 1.38 0.95 s0.62666 0.86334 0.8 1.39 s0.26 1.0767 0.26 1.65 c0 0.97334 -0.25 1.85 -0.75 2.63 s-1.1567 1.35 -1.97 1.71 l3.52 6.32 l-1.32 0 z M95.50500000000001 5.92 l-2.28 -0.000019531 l0 6.84 l2.42 0 c0.68 0 1.24 -0.10334 1.68 -0.31 s0.78334 -0.47332 1.03 -0.79998 s0.42 -0.7 0.52 -1.12 s0.15 -0.85 0.15 -1.29 c0 -0.46666 -0.08 -0.9 -0.24 -1.3 s-0.39 -0.75 -0.69 -1.05 s-0.66666 -0.53666 -1.1 -0.71 s-0.93 -0.26 -1.49 -0.26 z M108.04350000000001 20.18 c-0.65334 0 -1.2335 -0.086738 -1.7401 -0.26008 s-0.93332 -0.45 -1.28 -0.83 s-0.60332 -0.87666 -0.76998 -1.49 s-0.23666 -1.3533 -0.21 -2.22 l1.2 0 c0 0.42666 0.02 0.87 0.06 1.33 s0.14666 0.88 0.32 1.26 s0.43668 0.69 0.79002 0.93 s0.84334 0.36 1.47 0.36 c0.53334 0 0.98668 -0.08 1.36 -0.24 s0.67668 -0.37334 0.91002 -0.64 s0.39668 -0.58 0.49002 -0.94 s0.14 -0.73334 0.14 -1.12 c0 -0.45334 -0.08334 -0.85 -0.25 -1.19 s-0.38666 -0.64334 -0.66 -0.91 s-0.59334 -0.50332 -0.96 -0.70998 s-0.75 -0.39 -1.15 -0.55 c-0.64 -0.25334 -1.2 -0.50334 -1.68 -0.75 s-0.87334 -0.52332 -1.18 -0.82998 s-0.53666 -0.66332 -0.69 -1.07 s-0.23 -0.90332 -0.23 -1.49 c0 -1.3333 0.35 -2.3266 1.05 -2.98 s1.7033 -0.98 3.01 -0.98 c1.1333 0 2.03 0.33 2.69 0.99 s0.99 1.65 0.99 2.97 l0 1.1 l-1.12 0 l0 -1.2 c0 -0.41334 -0.05 -0.79668 -0.15 -1.15 s-0.25666 -0.66334 -0.47 -0.93 s-0.48334 -0.47666 -0.81 -0.63 s-0.71666 -0.23 -1.17 -0.23 c-1.0667 0 -1.83 0.28 -2.29 0.84 s-0.67 1.3133 -0.63 2.26 c0.01334 0.41334 0.09 0.76668 0.23 1.06 s0.32666 0.55 0.56 0.77 s0.51334 0.41666 0.84 0.59 s0.69 0.34668 1.09 0.52002 c0.46666 0.2 0.93 0.41334 1.39 0.64 s0.89 0.50666 1.29 0.84 c0.4 0.34666 0.73 0.75 0.99 1.21 s0.39 1.03 0.39 1.71 c0 1.32 -0.33666 2.31 -1.01 2.97 s-1.61 0.99 -2.81 0.99 z M118.70200000000001 6.1 l0 13.9 l-1.16 0 l0 -13.9 l-3.26 0 l0 -1.1 l7.68 0 l0 1.1 l-3.26 0 z"></path></g>
			</g>
		</svg>
	